<?xml version="1.0" encoding="utf-8"?>
<!-- Generator: Adobe Illustrator 22.0.1, SVG Export Plug-In . SVG Version: 6.00 Build 0)  -->
<svg version="1.1" xmlns="http://www.w3.org/2000/svg" xmlns:xlink="http://www.w3.org/1999/xlink" x="0px" y="0px"
	 viewBox="0 0 500 500" style="enable-background:new 0 0 500 500;" xml:space="preserve">
<style type="text/css">
	.st0{display:none;}
	.st1{display:inline;}
	.st2{fill:none;stroke:#000000;stroke-width:5;stroke-miterlimit:10;}
	.st3{fill:none;stroke:#FFFFFF;stroke-width:5;stroke-miterlimit:10;}
	.st4{fill:#FFFFFF;}
</style>
<g id="Camada_1" class="st0">
	<g class="st1">
		<circle class="st2" cx="251.9" cy="143.1" r="106"/>
		<circle class="st2" cx="250" cy="250" r="244"/>
		<path class="st2" d="M381,420.1H121c-5.5,0-10-4.5-10-10V374c0-69,56-125,125-125h30c69,0,125,56,125,125v36.1
			C391,415.6,386.5,420.1,381,420.1z"/>
	</g>
</g>
<g id="Camada_2">
	<g>
		<g>
			<polyline class="st3" points="490,153.5 473.3,333 147.6,333 93.3,99.2 3.5,115.9 			"/>
			<ellipse class="st4" cx="216.5" cy="376.9" rx="50.1" ry="31.3"/>
			<ellipse class="st4" cx="394" cy="379" rx="50.1" ry="31.3"/>
		</g>
		<line class="st3" x1="141.9" y1="301.6" x2="472.1" y2="301.6"/>
		<line class="st3" x1="137.4" y1="270.4" x2="476.6" y2="270.4"/>
		<line class="st3" x1="128.5" y1="243.6" x2="481.1" y2="243.6"/>
		<line class="st3" x1="119.5" y1="216.8" x2="485.5" y2="216.8"/>
		<line class="st3" x1="110.6" y1="190" x2="485.5" y2="190"/>
	</g>
</g>
</svg>
